<svg width="37" height="46" viewBox="0 0 37 46" fill="none" xmlns="http://www.w3.org/2000/svg">
<path d="M22.585 31.752L26.7323 32.1762L31.1625 27.1334C32.0108 26.1908 33.4718 26.0965 34.4143 26.992L34.4615 27.0391C35.4041 27.9346 35.4983 29.3956 34.65 30.3381L26.1668 40.0467L13.1121 39.7168L7.64517 44.0998L1 37.219L9.90735 29.4898L20.1814 29.3013C21.5482 29.2542 22.6321 30.3853 22.585 31.752ZM22.585 31.752C22.5379 32.9774 21.5482 33.9199 20.3228 33.9671L12.8293 34.2027M4.81817 8.1878H30.2677V23.3162H4.81817V8.1878ZM7.88155 4.88869L27.3458 4.79443L23.7168 1.25977L11.0863 1.35402L7.88155 4.88869Z" stroke="white" stroke-width="2" stroke-miterlimit="10" stroke-linejoin="round"/>
</svg>
