<svg width="47" height="48" viewBox="0 0 47 48" fill="none" xmlns="http://www.w3.org/2000/svg">
<path d="M23.5024 33.6648C28.6339 33.6648 32.7938 29.3315 32.7938 23.9862C32.7938 18.6409 28.6339 14.3076 23.5024 14.3076C18.3709 14.3076 14.2109 18.6409 14.2109 23.9862C14.2109 29.3315 18.3709 33.6648 23.5024 33.6648Z" stroke="white" stroke-width="2" stroke-miterlimit="10" stroke-linejoin="round"/>
<path d="M18.7118 6.22643L19.7764 1.19357L26.2127 1L27.5677 6.08125L32.165 7.77501L36.472 5.16179L40.9241 10.0011L38.4077 14.5016L40.3918 18.9054L45.3279 20.212L45.4731 26.5998L40.8274 28.1L38.6497 32.9393L41.3113 37.3431L36.9559 42.2307L32.7457 39.9079L27.6645 41.7952L27.1322 46.5377L21.0347 46.8281L19.1473 41.7952L14.792 40.1015L9.61394 42.8599L5.40375 37.827L8.25893 33.52L6.51679 28.7775L1.38714 27.9548L1 20.8895L5.88768 19.7764L7.96858 14.792L5.16179 10.4366L10.0011 5.35536L14.0177 8.11376L18.7118 6.22643Z" stroke="white" stroke-width="2" stroke-miterlimit="10" stroke-linejoin="round"/>
</svg>
