<svg width="46" height="46" viewBox="0 0 46 46" fill="none" xmlns="http://www.w3.org/2000/svg">
<path d="M4.8252 20.5765L22.4202 20.3965" stroke="white" stroke-width="2" stroke-miterlimit="10" stroke-linecap="round" stroke-linejoin="round"/>
<path d="M21.5645 3.92578C24.7595 3.92578 27.3695 6.53578 27.3695 9.73078C27.3695 12.9258 24.7595 15.5358 21.5645 15.5358V17.7858L30.4745 17.6508" stroke="white" stroke-width="2" stroke-miterlimit="10" stroke-linecap="round" stroke-linejoin="round"/>
<path d="M30.4746 17.6494C32.2296 17.6494 33.6696 19.0894 33.6696 20.8444V34.2994" stroke="white" stroke-width="2" stroke-miterlimit="10" stroke-linecap="round" stroke-linejoin="round"/>
<path d="M31.2847 1.62988C33.4897 2.43988 35.0647 4.55488 35.0647 7.07488C35.0647 10.2699 33.0397 12.7899 29.8447 12.7899V15.0399H38.1697" stroke="white" stroke-width="2" stroke-miterlimit="10" stroke-linecap="round" stroke-linejoin="round"/>
<path d="M13.5111 18.2809C16.7171 18.2809 19.3161 15.6819 19.3161 12.4759C19.3161 9.26989 16.7171 6.6709 13.5111 6.6709C10.305 6.6709 7.70605 9.26989 7.70605 12.4759C7.70605 15.6819 10.305 18.2809 13.5111 18.2809Z" stroke="white" stroke-width="2" stroke-miterlimit="10" stroke-linecap="round" stroke-linejoin="round"/>
<path d="M22.4196 20.3965C24.1746 20.3965 25.6146 21.8365 25.6146 23.5915V37.0465C25.6146 38.8015 24.1746 40.2415 22.4196 40.2415C20.6646 40.2415 19.2246 38.8015 19.2246 37.0465V26.8765" stroke="white" stroke-width="2" stroke-miterlimit="10" stroke-linecap="round" stroke-linejoin="round"/>
<path d="M8.01988 26.8742V37.2242C8.01988 38.9792 6.57988 40.4192 4.82488 40.4192C3.06988 40.4192 1.62988 38.9792 1.62988 37.2242V23.7692C1.62988 22.0142 3.06988 20.5742 4.82488 20.5742" stroke="white" stroke-width="2" stroke-miterlimit="10" stroke-linecap="round" stroke-linejoin="round"/>
<path d="M38.1699 14.9961C39.9249 14.9961 41.3649 16.4361 41.3649 18.1911V26.4711" stroke="white" stroke-width="2" stroke-miterlimit="10" stroke-linecap="round" stroke-linejoin="round"/>
</svg>
