<svg width="36" height="46" viewBox="0 0 36 46" fill="none" xmlns="http://www.w3.org/2000/svg">
<path d="M17.8576 1L2.00739 6.23581L1.9122 25.4655C1.9122 25.4655 1.817 33.6524 7.95717 38.079C14.0973 42.5057 17.8576 44.6 17.8576 44.6L26.0921 39.2214C28.9004 37.3651 31.1851 34.8424 32.5655 31.7961C33.4222 29.9397 34.041 27.655 34.041 25.0847C34.041 17.0406 34.1362 6.23581 34.1362 6.23581L17.8576 1Z" stroke="white" stroke-width="2" stroke-miterlimit="10" stroke-linejoin="round"/>
<path d="M6.10059 18.6112L14.0971 17.4688L17.8574 10.1387L21.4272 17.5164L29.5189 18.7064L23.7595 24.3705L25.1399 32.5574L17.8574 28.7496L10.5748 32.5099L12.0028 24.4181L6.10059 18.6112Z" stroke="white" stroke-width="2" stroke-miterlimit="10" stroke-linejoin="round"/>
</svg>
