<svg width="50" height="42" viewBox="0 0 50 42" fill="none" xmlns="http://www.w3.org/2000/svg">
<path d="M12.9301 40.0622C6.03379 36.7902 1 29.5919 1 21.4372C1 16.0007 3.11419 11.0676 6.5875 7.39291C10.3125 3.46655 15.598 1 21.4372 1C27.2764 1 32.5115 3.41622 36.2365 7.34257C37.4949 8.65135 38.9044 11.0172 39.7601 12.5777" stroke="white" stroke-width="2" stroke-miterlimit="10" stroke-linecap="round" stroke-linejoin="round"/>
<path d="M6.83887 8.14844C6.83887 8.14844 20.7825 21.3873 36.1858 8.14844" stroke="white" stroke-width="2" stroke-miterlimit="10" stroke-linecap="round" stroke-linejoin="round"/>
<path d="M6.94043 34.727C6.94043 34.727 8.34989 33.3176 10.6151 32.0088" stroke="white" stroke-width="2" stroke-miterlimit="10" stroke-linecap="round" stroke-linejoin="round"/>
<path d="M1.60352 21.4893L17.1579 21.5396" stroke="white" stroke-width="2" stroke-miterlimit="10" stroke-linecap="round" stroke-linejoin="round"/>
<path d="M21.4381 1C21.4381 1 6.23609 10.4132 10.1121 27.075" stroke="white" stroke-width="2" stroke-miterlimit="10" stroke-linecap="round" stroke-linejoin="round"/>
<path d="M21.5381 1.25195C21.5381 1.25195 29.4411 6.28574 32.4111 15.1955" stroke="white" stroke-width="2" stroke-miterlimit="10" stroke-linecap="round" stroke-linejoin="round"/>
<path d="M21.4375 1.80664V21.4384" stroke="white" stroke-width="2" stroke-miterlimit="10" stroke-linecap="round" stroke-linejoin="round"/>
<path d="M17.7627 35.3744C17.7627 35.3744 20.2796 16.6488 48.7708 17.2025C48.7708 17.2025 43.3847 37.0859 17.7627 35.3744Z" stroke="white" stroke-width="2" stroke-miterlimit="10" stroke-linecap="round" stroke-linejoin="round"/>
<path d="M48.7708 17.2021L17.7627 35.3741L48.7708 17.2021Z" stroke="white" stroke-width="2" stroke-miterlimit="10" stroke-linecap="round" stroke-linejoin="round"/>
</svg>
