<svg width="20" height="20" viewBox="0 0 20 20" fill="none" xmlns="http://www.w3.org/2000/svg">
<g clip-path="url(#clip0_32_375)">
<path fill-rule="evenodd" clip-rule="evenodd" d="M18.5117 19.0132H1.48774C0.671742 19.0132 0.0107422 18.4342 0.0107422 17.7202V2.28223C0.0107422 1.56923 0.671742 0.990234 1.48774 0.990234H18.5117C19.3267 0.990234 19.9877 1.56923 19.9877 2.28223V17.7202C19.9877 18.4342 19.3267 19.0132 18.5117 19.0132ZM3.47274 16.0442H6.41474V7.90723H3.47274V16.0442ZM4.96374 3.98523C3.95674 3.98523 3.29974 4.59223 3.29974 5.39123C3.29974 6.17123 3.93774 6.79723 4.92474 6.79723H4.94374C5.96974 6.79723 6.60774 6.17123 6.60774 5.39123C6.58974 4.59223 5.96974 3.98523 4.96374 3.98523ZM17.0227 11.3792C17.0227 8.87923 15.5707 7.71623 13.6357 7.71623C12.0737 7.71623 11.3757 8.50523 10.9847 9.06023V7.90723H8.04274C8.08174 8.67123 8.04274 16.0442 8.04274 16.0442H10.9847V11.5002C10.9847 11.2582 11.0037 11.0142 11.0817 10.8412C11.2937 10.3552 11.7787 9.85223 12.5907 9.85223C13.6557 9.85223 14.0807 10.5982 14.0807 11.6922V16.0442H17.0227V11.3792ZM10.9647 9.08723C10.9707 9.07823 10.9787 9.06923 10.9847 9.06023V9.08723H10.9647Z" fill="#333333"/>
</g>
<defs>
<clipPath id="clip0_32_375">
<rect width="20" height="20" fill="white"/>
</clipPath>
</defs>
</svg>
