<svg width="50" height="67" viewBox="0 0 50 67" fill="none" xmlns="http://www.w3.org/2000/svg">
<path d="M24.6522 1L1.13884 8.76843L1.00012 37.2064C1.00012 37.2064 0.8614 49.2753 9.94769 55.8646C19.034 62.4538 24.5829 65.5751 24.5829 65.5751L36.721 57.5986C40.8827 54.8935 44.2814 51.0786 46.3622 46.5702C47.6107 43.7957 48.5124 40.4664 48.5124 36.6515C48.5124 24.7908 48.6511 8.76843 48.6511 8.76843L24.6522 1Z" stroke="white" stroke-width="2" stroke-miterlimit="10" stroke-linejoin="round"/>
<path d="M9.32324 13.6235L25.2763 13.6929L25.2069 23.4034L32.143 23.3341L39.0098 32.4204L38.871 43.3794L35.5417 43.4488C35.5417 43.4488 34.0158 50.5929 27.7733 50.801C21.8776 50.9397 20.1436 43.8649 20.1436 43.8649H9.32324V13.6235Z" stroke="white" stroke-width="2" stroke-miterlimit="10" stroke-linejoin="round"/>
<path d="M21.253 27.7744H29.5069L33.8073 33.6007H21.1836L21.253 27.7744Z" stroke="white" stroke-width="2" stroke-miterlimit="10" stroke-linejoin="round"/>
<path d="M27.8429 45.945C29.4901 45.945 30.8254 44.6097 30.8254 42.9625C30.8254 41.3153 29.4901 39.98 27.8429 39.98C26.1957 39.98 24.8604 41.3153 24.8604 42.9625C24.8604 44.6097 26.1957 45.945 27.8429 45.945Z" stroke="white" stroke-width="2" stroke-miterlimit="10" stroke-linejoin="round"/>
</svg>
