<svg width="69" height="52" viewBox="0 0 69 52" fill="none" xmlns="http://www.w3.org/2000/svg">
<path d="M1.0791 1L14.0246 4.3248L28 5.5" stroke="white" stroke-width="1.65075" stroke-miterlimit="10" stroke-linecap="round" stroke-linejoin="round"/>
<path d="M1.0791 25.9004L9.5 28.5" stroke="white" stroke-width="1.65075" stroke-miterlimit="10" stroke-linecap="round" stroke-linejoin="round"/>
<path d="M18.6936 28.8704L12.6807 35.52C11.9025 36.3689 10.6292 36.4396 9.7803 35.6615L7.65808 33.7515C6.80919 32.9734 6.73845 31.7 7.5166 30.8511L13.5295 24.2015C14.3077 23.3527 15.581 23.2819 16.4299 24.0601L18.5521 25.97C19.401 26.7482 19.4717 28.0215 18.6936 28.8704Z" stroke="white" stroke-width="1.65075" stroke-miterlimit="10" stroke-linecap="round" stroke-linejoin="round"/>
<path d="M24.2122 33.8221L18.1992 40.4717C17.4211 41.3206 16.1477 41.3913 15.2988 40.6132L13.1766 38.7032C12.3277 37.925 12.257 36.6517 13.0352 35.8028L19.0481 29.1532C19.8262 28.3043 21.0996 28.2336 21.9485 29.0117L24.0707 30.9217C24.9196 31.6999 24.9196 32.9732 24.2122 33.8221Z" stroke="white" stroke-width="1.65075" stroke-miterlimit="10" stroke-linecap="round" stroke-linejoin="round"/>
<path d="M29.7288 38.4925L23.7158 45.1421C22.9377 45.991 21.6643 46.0617 20.8155 45.2836L18.6932 43.3736C17.8443 42.5954 17.7736 41.3221 18.5518 40.4732L24.5647 33.8236C25.3428 32.9747 26.6162 32.904 27.4651 33.6821L29.5873 35.5921C30.4362 36.3703 30.4362 37.6436 29.7288 38.4925Z" stroke="white" stroke-width="1.65075" stroke-miterlimit="10" stroke-linecap="round" stroke-linejoin="round"/>
<path d="M35.0344 43.1624L29.0215 49.812C28.2433 50.6609 26.97 50.7316 26.1211 49.9535L23.9989 48.0435C23.15 47.2654 23.0793 45.992 23.8574 45.1431L29.8704 38.4935C30.6485 37.6446 31.9218 37.5739 32.7707 38.352L34.8929 40.262C35.7418 41.0402 35.8126 42.3135 35.0344 43.1624Z" stroke="white" stroke-width="1.65075" stroke-miterlimit="10" stroke-linecap="round" stroke-linejoin="round"/>
<path d="M59.5107 28.0225L67.9996 25.1929" stroke="white" stroke-width="1.65075" stroke-miterlimit="10" stroke-linecap="round" stroke-linejoin="round"/>
<path d="M68.0005 1L51.2349 5.24443L32.418 1.84889L17.7747 14.4407C17.7747 14.4407 16.7843 20.0292 24.2828 17.907C31.7813 15.7848 32.4887 12.8844 32.4887 12.8844C32.4887 12.8844 37.1576 20.4536 48.0516 19.1803L53.5694 23.354" stroke="white" stroke-width="1.65075" stroke-miterlimit="10" stroke-linecap="round" stroke-linejoin="round"/>
<path d="M53.4275 23.2837L59.0867 27.8111C60.8552 29.2259 61.3504 31.6311 60.1478 33.1166C58.9453 34.6022 56.5401 34.6729 54.7008 33.2581L47.9805 28.094" stroke="white" stroke-width="1.65075" stroke-miterlimit="10" stroke-linecap="round" stroke-linejoin="round"/>
<path d="M53.0024 31.9849C54.7709 33.3997 55.1246 35.9463 53.8513 37.5734C52.5072 39.2711 49.9605 39.4126 48.192 37.9978L41.4717 32.8338" stroke="white" stroke-width="1.65075" stroke-miterlimit="10" stroke-linecap="round" stroke-linejoin="round"/>
<path d="M46.8476 37.0059C48.6161 38.4207 49.0406 41.0381 47.6965 42.7358C46.3524 44.4336 43.8058 44.5751 42.0372 43.1603L34.751 37.5718" stroke="white" stroke-width="1.65075" stroke-miterlimit="10" stroke-linecap="round" stroke-linejoin="round"/>
<path d="M39.7031 41.394C41.4716 42.8089 41.8253 45.3555 40.552 46.9825C39.2079 48.6803 36.6612 48.8218 34.8927 47.407L32.7705 45.78" stroke="white" stroke-width="1.65075" stroke-miterlimit="10" stroke-linecap="round" stroke-linejoin="round"/>
</svg>
