<svg width="50" height="67" viewBox="0 0 50 67" fill="none" xmlns="http://www.w3.org/2000/svg">
<path d="M11.042 27.8024V43.0121C11.042 43.8243 11.7065 44.5627 12.5925 44.5627H36.5147C37.4745 44.5627 38.2867 43.7505 38.2867 42.7906V28.0239C38.2867 27.1379 37.5484 26.3257 36.5885 26.3257H31.7893H17.9085H12.5187C11.7065 26.3257 11.042 26.9902 11.042 27.8024Z" stroke="white" stroke-width="2" stroke-miterlimit="10" stroke-linejoin="round"/>
<path d="M17.9082 26.3253V18.5727C17.9082 17.6129 18.6465 16.8745 19.6064 16.8745H30.0908C31.0506 16.8745 31.789 17.6129 31.789 18.5727V26.3253" stroke="white" stroke-width="2" stroke-miterlimit="10" stroke-linejoin="round"/>
<path d="M24.7747 1L1.14781 8.82639L1.00014 37.4001C1.00014 37.4001 0.852477 49.5089 10.0079 56.1539C19.1633 62.799 24.7747 65.9 24.7747 65.9L36.9573 57.9259C41.092 55.1941 44.5621 51.4286 46.6295 46.8509C47.8847 44.0452 48.8445 40.7226 48.8445 36.8833C48.8445 24.9222 48.9922 8.90023 48.9922 8.90023L24.7747 1Z" stroke="white" stroke-width="2" stroke-miterlimit="10" stroke-linejoin="round"/>
</svg>
